<svg xmlns="http://www.w3.org/2000/svg" xmlns:xlink="http://www.w3.org/1999/xlink" width="500" zoomAndPan="magnify" viewBox="0 0 375 374.999991" height="500" preserveAspectRatio="xMidYMid meet" version="1.0"><defs><g/><clipPath id="895624e293"><path d="M 120 124 L 267 124 L 267 251 L 120 251 Z M 120 124 " clip-rule="nonzero"/></clipPath><clipPath id="60f5c1afa6"><path d="M 36.554688 22.683594 L 356.753906 28.371094 L 351 352.320312 L 30.800781 346.632812 Z M 36.554688 22.683594 " clip-rule="nonzero"/></clipPath><clipPath id="716bca8448"><path d="M 36.554688 22.683594 L 356.753906 28.371094 L 351 352.320312 L 30.800781 346.632812 Z M 36.554688 22.683594 " clip-rule="nonzero"/></clipPath><clipPath id="19a16122b1"><path d="M 174 53 L 183 53 L 183 132 L 174 132 Z M 174 53 " clip-rule="nonzero"/></clipPath><clipPath id="61b8a2afd4"><path d="M 36.554688 22.683594 L 356.753906 28.371094 L 351 352.320312 L 30.800781 346.632812 Z M 36.554688 22.683594 " clip-rule="nonzero"/></clipPath><clipPath id="89fb975c18"><path d="M 36.554688 22.683594 L 356.753906 28.371094 L 351 352.320312 L 30.800781 346.632812 Z M 36.554688 22.683594 " clip-rule="nonzero"/></clipPath><clipPath id="247febf30d"><path d="M 162 25 L 197 25 L 197 60 L 162 60 Z M 162 25 " clip-rule="nonzero"/></clipPath><clipPath id="c7e0e352fa"><path d="M 36.554688 22.683594 L 356.753906 28.371094 L 351 352.320312 L 30.800781 346.632812 Z M 36.554688 22.683594 " clip-rule="nonzero"/></clipPath><clipPath id="b2e7d6662c"><path d="M 36.554688 22.683594 L 356.753906 28.371094 L 351 352.320312 L 30.800781 346.632812 Z M 36.554688 22.683594 " clip-rule="nonzero"/></clipPath><clipPath id="68cd375a69"><path d="M 208 95 L 216 95 L 216 132 L 208 132 Z M 208 95 " clip-rule="nonzero"/></clipPath><clipPath id="cdfb68160e"><path d="M 36.554688 22.683594 L 356.753906 28.371094 L 351 352.320312 L 30.800781 346.632812 Z M 36.554688 22.683594 " clip-rule="nonzero"/></clipPath><clipPath id="280800e786"><path d="M 36.554688 22.683594 L 356.753906 28.371094 L 351 352.320312 L 30.800781 346.632812 Z M 36.554688 22.683594 " clip-rule="nonzero"/></clipPath><clipPath id="8c2e4e39b2"><path d="M 195 67 L 230 67 L 230 103 L 195 103 Z M 195 67 " clip-rule="nonzero"/></clipPath><clipPath id="a9f0c5ac9f"><path d="M 36.554688 22.683594 L 356.753906 28.371094 L 351 352.320312 L 30.800781 346.632812 Z M 36.554688 22.683594 " clip-rule="nonzero"/></clipPath><clipPath id="314cac5dd6"><path d="M 36.554688 22.683594 L 356.753906 28.371094 L 351 352.320312 L 30.800781 346.632812 Z M 36.554688 22.683594 " clip-rule="nonzero"/></clipPath><clipPath id="941f2319b2"><path d="M 241 66 L 284 66 L 284 133 L 241 133 Z M 241 66 " clip-rule="nonzero"/></clipPath><clipPath id="9f6d75e9c3"><path d="M 36.554688 22.683594 L 356.753906 28.371094 L 351 352.320312 L 30.800781 346.632812 Z M 36.554688 22.683594 " clip-rule="nonzero"/></clipPath><clipPath id="4e5cf99139"><path d="M 36.554688 22.683594 L 356.753906 28.371094 L 351 352.320312 L 30.800781 346.632812 Z M 36.554688 22.683594 " clip-rule="nonzero"/></clipPath><clipPath id="0f11451561"><path d="M 276 52 L 312 52 L 312 88 L 276 88 Z M 276 52 " clip-rule="nonzero"/></clipPath><clipPath id="218924fa61"><path d="M 36.554688 22.683594 L 356.753906 28.371094 L 351 352.320312 L 30.800781 346.632812 Z M 36.554688 22.683594 " clip-rule="nonzero"/></clipPath><clipPath id="cd38a8ddcf"><path d="M 36.554688 22.683594 L 356.753906 28.371094 L 351 352.320312 L 30.800781 346.632812 Z M 36.554688 22.683594 " clip-rule="nonzero"/></clipPath><clipPath id="bad99c5038"><path d="M 108 63 L 149 63 L 149 131 L 108 131 Z M 108 63 " clip-rule="nonzero"/></clipPath><clipPath id="78662cc210"><path d="M 36.554688 22.683594 L 356.753906 28.371094 L 351 352.320312 L 30.800781 346.632812 Z M 36.554688 22.683594 " clip-rule="nonzero"/></clipPath><clipPath id="b880d0c019"><path d="M 36.554688 22.683594 L 356.753906 28.371094 L 351 352.320312 L 30.800781 346.632812 Z M 36.554688 22.683594 " clip-rule="nonzero"/></clipPath><clipPath id="b0d329d0ca"><path d="M 80 49 L 115 49 L 115 84 L 80 84 Z M 80 49 " clip-rule="nonzero"/></clipPath><clipPath id="f43cca7c73"><path d="M 36.554688 22.683594 L 356.753906 28.371094 L 351 352.320312 L 30.800781 346.632812 Z M 36.554688 22.683594 " clip-rule="nonzero"/></clipPath><clipPath id="ff06f9dbd4"><path d="M 36.554688 22.683594 L 356.753906 28.371094 L 351 352.320312 L 30.800781 346.632812 Z M 36.554688 22.683594 " clip-rule="nonzero"/></clipPath><clipPath id="56a341dcf9"><path d="M 260 151 L 327 151 L 327 159 L 260 159 Z M 260 151 " clip-rule="nonzero"/></clipPath><clipPath id="0589700fce"><path d="M 36.554688 22.683594 L 356.753906 28.371094 L 351 352.320312 L 30.800781 346.632812 Z M 36.554688 22.683594 " clip-rule="nonzero"/></clipPath><clipPath id="c4bb96fa6c"><path d="M 36.554688 22.683594 L 356.753906 28.371094 L 351 352.320312 L 30.800781 346.632812 Z M 36.554688 22.683594 " clip-rule="nonzero"/></clipPath><clipPath id="7567b9d6a1"><path d="M 319 138 L 355 138 L 355 173 L 319 173 Z M 319 138 " clip-rule="nonzero"/></clipPath><clipPath id="b8759ae24a"><path d="M 36.554688 22.683594 L 356.753906 28.371094 L 351 352.320312 L 30.800781 346.632812 Z M 36.554688 22.683594 " clip-rule="nonzero"/></clipPath><clipPath id="9e992538cb"><path d="M 36.554688 22.683594 L 356.753906 28.371094 L 351 352.320312 L 30.800781 346.632812 Z M 36.554688 22.683594 " clip-rule="nonzero"/></clipPath><clipPath id="c3412847da"><path d="M 259 185 L 284 185 L 284 193 L 259 193 Z M 259 185 " clip-rule="nonzero"/></clipPath><clipPath id="0d73ebf85a"><path d="M 36.554688 22.683594 L 356.753906 28.371094 L 351 352.320312 L 30.800781 346.632812 Z M 36.554688 22.683594 " clip-rule="nonzero"/></clipPath><clipPath id="998cf0edea"><path d="M 36.554688 22.683594 L 356.753906 28.371094 L 351 352.320312 L 30.800781 346.632812 Z M 36.554688 22.683594 " clip-rule="nonzero"/></clipPath><clipPath id="9c0096636a"><path d="M 277 172 L 312 172 L 312 207 L 277 207 Z M 277 172 " clip-rule="nonzero"/></clipPath><clipPath id="bd945d0811"><path d="M 36.554688 22.683594 L 356.753906 28.371094 L 351 352.320312 L 30.800781 346.632812 Z M 36.554688 22.683594 " clip-rule="nonzero"/></clipPath><clipPath id="88f3a07d03"><path d="M 36.554688 22.683594 L 356.753906 28.371094 L 351 352.320312 L 30.800781 346.632812 Z M 36.554688 22.683594 " clip-rule="nonzero"/></clipPath><clipPath id="b370117d90"><path d="M 258 219 L 325 219 L 325 228 L 258 228 Z M 258 219 " clip-rule="nonzero"/></clipPath><clipPath id="aee5d3db05"><path d="M 36.554688 22.683594 L 356.753906 28.371094 L 351 352.320312 L 30.800781 346.632812 Z M 36.554688 22.683594 " clip-rule="nonzero"/></clipPath><clipPath id="47d295acdd"><path d="M 36.554688 22.683594 L 356.753906 28.371094 L 351 352.320312 L 30.800781 346.632812 Z M 36.554688 22.683594 " clip-rule="nonzero"/></clipPath><clipPath id="833400705a"><path d="M 318 207 L 353 207 L 353 242 L 318 242 Z M 318 207 " clip-rule="nonzero"/></clipPath><clipPath id="e46250c40a"><path d="M 36.554688 22.683594 L 356.753906 28.371094 L 351 352.320312 L 30.800781 346.632812 Z M 36.554688 22.683594 " clip-rule="nonzero"/></clipPath><clipPath id="c892b0cb42"><path d="M 36.554688 22.683594 L 356.753906 28.371094 L 351 352.320312 L 30.800781 346.632812 Z M 36.554688 22.683594 " clip-rule="nonzero"/></clipPath><clipPath id="1beb6cb17c"><path d="M 171 243 L 179 243 L 179 322 L 171 322 Z M 171 243 " clip-rule="nonzero"/></clipPath><clipPath id="83ec8e0f5c"><path d="M 36.554688 22.683594 L 356.753906 28.371094 L 351 352.320312 L 30.800781 346.632812 Z M 36.554688 22.683594 " clip-rule="nonzero"/></clipPath><clipPath id="a64b6137c4"><path d="M 36.554688 22.683594 L 356.753906 28.371094 L 351 352.320312 L 30.800781 346.632812 Z M 36.554688 22.683594 " clip-rule="nonzero"/></clipPath><clipPath id="ea58fdb135"><path d="M 156 314 L 192 314 L 192 350 L 156 350 Z M 156 314 " clip-rule="nonzero"/></clipPath><clipPath id="33c236ddaa"><path d="M 36.554688 22.683594 L 356.753906 28.371094 L 351 352.320312 L 30.800781 346.632812 Z M 36.554688 22.683594 " clip-rule="nonzero"/></clipPath><clipPath id="22baf4ad5b"><path d="M 36.554688 22.683594 L 356.753906 28.371094 L 351 352.320312 L 30.800781 346.632812 Z M 36.554688 22.683594 " clip-rule="nonzero"/></clipPath><clipPath id="7a31a02f2b"><path d="M 205 243 L 213 243 L 213 280 L 205 280 Z M 205 243 " clip-rule="nonzero"/></clipPath><clipPath id="86a9da681c"><path d="M 36.554688 22.683594 L 356.753906 28.371094 L 351 352.320312 L 30.800781 346.632812 Z M 36.554688 22.683594 " clip-rule="nonzero"/></clipPath><clipPath id="2b853f7bab"><path d="M 36.554688 22.683594 L 356.753906 28.371094 L 351 352.320312 L 30.800781 346.632812 Z M 36.554688 22.683594 " clip-rule="nonzero"/></clipPath><clipPath id="df292d24e6"><path d="M 191 273 L 226 273 L 226 308 L 191 308 Z M 191 273 " clip-rule="nonzero"/></clipPath><clipPath id="267c2be003"><path d="M 36.554688 22.683594 L 356.753906 28.371094 L 351 352.320312 L 30.800781 346.632812 Z M 36.554688 22.683594 " clip-rule="nonzero"/></clipPath><clipPath id="9cd76be315"><path d="M 36.554688 22.683594 L 356.753906 28.371094 L 351 352.320312 L 30.800781 346.632812 Z M 36.554688 22.683594 " clip-rule="nonzero"/></clipPath><clipPath id="3a878bc8b4"><path d="M 238 244 L 279 244 L 279 312 L 238 312 Z M 238 244 " clip-rule="nonzero"/></clipPath><clipPath id="f75fd65687"><path d="M 36.554688 22.683594 L 356.753906 28.371094 L 351 352.320312 L 30.800781 346.632812 Z M 36.554688 22.683594 " clip-rule="nonzero"/></clipPath><clipPath id="657f21ca26"><path d="M 36.554688 22.683594 L 356.753906 28.371094 L 351 352.320312 L 30.800781 346.632812 Z M 36.554688 22.683594 " clip-rule="nonzero"/></clipPath><clipPath id="35b478cdfc"><path d="M 272 291 L 307 291 L 307 326 L 272 326 Z M 272 291 " clip-rule="nonzero"/></clipPath><clipPath id="26f58184c7"><path d="M 36.554688 22.683594 L 356.753906 28.371094 L 351 352.320312 L 30.800781 346.632812 Z M 36.554688 22.683594 " clip-rule="nonzero"/></clipPath><clipPath id="649ede7282"><path d="M 36.554688 22.683594 L 356.753906 28.371094 L 351 352.320312 L 30.800781 346.632812 Z M 36.554688 22.683594 " clip-rule="nonzero"/></clipPath><clipPath id="a0b785434b"><path d="M 104 242 L 146 242 L 146 309 L 104 309 Z M 104 242 " clip-rule="nonzero"/></clipPath><clipPath id="4c05b08aad"><path d="M 36.554688 22.683594 L 356.753906 28.371094 L 351 352.320312 L 30.800781 346.632812 Z M 36.554688 22.683594 " clip-rule="nonzero"/></clipPath><clipPath id="e73bd438d1"><path d="M 36.554688 22.683594 L 356.753906 28.371094 L 351 352.320312 L 30.800781 346.632812 Z M 36.554688 22.683594 " clip-rule="nonzero"/></clipPath><clipPath id="2f28edc4d5"><path d="M 76 287 L 111 287 L 111 323 L 76 323 Z M 76 287 " clip-rule="nonzero"/></clipPath><clipPath id="af0b7113b3"><path d="M 36.554688 22.683594 L 356.753906 28.371094 L 351 352.320312 L 30.800781 346.632812 Z M 36.554688 22.683594 " clip-rule="nonzero"/></clipPath><clipPath id="d779678ba4"><path d="M 36.554688 22.683594 L 356.753906 28.371094 L 351 352.320312 L 30.800781 346.632812 Z M 36.554688 22.683594 " clip-rule="nonzero"/></clipPath><clipPath id="797e48f915"><path d="M 62 147 L 129 147 L 129 156 L 62 156 Z M 62 147 " clip-rule="nonzero"/></clipPath><clipPath id="907c60ba14"><path d="M 36.554688 22.683594 L 356.753906 28.371094 L 351 352.320312 L 30.800781 346.632812 Z M 36.554688 22.683594 " clip-rule="nonzero"/></clipPath><clipPath id="d3faacc3c8"><path d="M 36.554688 22.683594 L 356.753906 28.371094 L 351 352.320312 L 30.800781 346.632812 Z M 36.554688 22.683594 " clip-rule="nonzero"/></clipPath><clipPath id="dc5b8a04bc"><path d="M 34 133 L 69 133 L 69 168 L 34 168 Z M 34 133 " clip-rule="nonzero"/></clipPath><clipPath id="4583e6c410"><path d="M 36.554688 22.683594 L 356.753906 28.371094 L 351 352.320312 L 30.800781 346.632812 Z M 36.554688 22.683594 " clip-rule="nonzero"/></clipPath><clipPath id="0cedaac43f"><path d="M 36.554688 22.683594 L 356.753906 28.371094 L 351 352.320312 L 30.800781 346.632812 Z M 36.554688 22.683594 " clip-rule="nonzero"/></clipPath><clipPath id="bafaa85e4a"><path d="M 103 182 L 128 182 L 128 190 L 103 190 Z M 103 182 " clip-rule="nonzero"/></clipPath><clipPath id="374fe1232e"><path d="M 36.554688 22.683594 L 356.753906 28.371094 L 351 352.320312 L 30.800781 346.632812 Z M 36.554688 22.683594 " clip-rule="nonzero"/></clipPath><clipPath id="7a0591db0c"><path d="M 36.554688 22.683594 L 356.753906 28.371094 L 351 352.320312 L 30.800781 346.632812 Z M 36.554688 22.683594 " clip-rule="nonzero"/></clipPath><clipPath id="cd0ffa2f88"><path d="M 75 168 L 110 168 L 110 203 L 75 203 Z M 75 168 " clip-rule="nonzero"/></clipPath><clipPath id="deb052cf3d"><path d="M 36.554688 22.683594 L 356.753906 28.371094 L 351 352.320312 L 30.800781 346.632812 Z M 36.554688 22.683594 " clip-rule="nonzero"/></clipPath><clipPath id="d948e46bba"><path d="M 36.554688 22.683594 L 356.753906 28.371094 L 351 352.320312 L 30.800781 346.632812 Z M 36.554688 22.683594 " clip-rule="nonzero"/></clipPath><clipPath id="ea0650fee1"><path d="M 61 216 L 127 216 L 127 224 L 61 224 Z M 61 216 " clip-rule="nonzero"/></clipPath><clipPath id="00e3f78082"><path d="M 36.554688 22.683594 L 356.753906 28.371094 L 351 352.320312 L 30.800781 346.632812 Z M 36.554688 22.683594 " clip-rule="nonzero"/></clipPath><clipPath id="4b8e83b44a"><path d="M 36.554688 22.683594 L 356.753906 28.371094 L 351 352.320312 L 30.800781 346.632812 Z M 36.554688 22.683594 " clip-rule="nonzero"/></clipPath><clipPath id="e3da1442a2"><path d="M 33 202 L 68 202 L 68 237 L 33 237 Z M 33 202 " clip-rule="nonzero"/></clipPath><clipPath id="8b1a2b9654"><path d="M 36.554688 22.683594 L 356.753906 28.371094 L 351 352.320312 L 30.800781 346.632812 Z M 36.554688 22.683594 " clip-rule="nonzero"/></clipPath><clipPath id="1bc4c8ca08"><path d="M 36.554688 22.683594 L 356.753906 28.371094 L 351 352.320312 L 30.800781 346.632812 Z M 36.554688 22.683594 " clip-rule="nonzero"/></clipPath></defs><g clip-path="url(#895624e293)"><g clip-path="url(#60f5c1afa6)"><g clip-path="url(#716bca8448)"><path fill="#693e6c" d="M 244.992188 250.773438 L 139.855469 248.90625 C 129.039062 248.714844 120.277344 239.636719 120.46875 228.820312 L 121.984375 143.609375 C 122.179688 132.601562 131.257812 123.839844 142.074219 124.03125 L 247.210938 125.902344 C 258.21875 126.097656 266.980469 135.175781 266.78125 146.179688 L 265.269531 231.390625 C 265.078125 242.207031 256 250.96875 244.992188 250.773438 Z M 144.164062 209.496094 C 143.785156 209.488281 143.402344 209.484375 143.027344 209.285156 C 141.328125 208.6875 140.605469 206.777344 141.394531 205.082031 L 148.527344 188.121094 L 148.53125 187.933594 L 161.414062 157.410156 C 161.414062 157.410156 161.417969 157.21875 161.417969 157.21875 C 161.613281 156.84375 161.8125 156.464844 162.195312 156.28125 C 162.390625 155.90625 162.773438 155.722656 163.15625 155.539062 C 163.15625 155.539062 163.15625 155.539062 163.34375 155.542969 C 163.730469 155.359375 163.917969 155.363281 164.296875 155.371094 C 164.675781 155.378906 165.058594 155.382812 165.433594 155.582031 C 165.433594 155.582031 165.621094 155.585938 165.621094 155.585938 C 166 155.78125 166.375 155.976562 166.558594 156.359375 C 166.933594 156.558594 167.117188 156.941406 167.300781 157.324219 C 167.300781 157.324219 167.296875 157.511719 167.296875 157.511719 L 179.085938 188.476562 L 179.082031 188.664062 L 185.613281 205.867188 C 186.152344 207.585938 185.359375 209.46875 183.828125 210.011719 C 182.113281 210.550781 180.226562 209.757812 179.683594 208.230469 L 173.882812 192.9375 L 153.574219 192.578125 L 147.234375 207.652344 C 146.644531 208.78125 145.492188 209.519531 144.164062 209.496094 Z M 216.464844 210.972656 L 216.273438 210.96875 L 199.574219 210.671875 C 197.867188 210.640625 196.5625 209.289062 196.59375 207.582031 C 196.625 205.683594 197.976562 204.378906 199.6875 204.40625 L 213.347656 204.652344 L 214.101562 162.332031 L 200.4375 162.089844 C 198.730469 162.058594 197.425781 160.707031 197.453125 158.996094 C 197.488281 157.101562 198.839844 155.796875 200.546875 155.824219 L 234.140625 156.421875 C 235.847656 156.453125 237.339844 157.808594 237.308594 159.707031 C 237.277344 161.414062 235.734375 162.714844 234.027344 162.683594 L 220.363281 162.441406 L 219.613281 204.761719 L 233.277344 205.003906 C 234.984375 205.035156 236.480469 206.390625 236.445312 208.289062 C 236.414062 209.996094 234.871094 211.296875 233.164062 211.265625 Z M 171.527344 186.441406 L 164.089844 167.136719 L 156.15625 186.171875 Z M 171.527344 186.441406 " fill-opacity="1" fill-rule="evenodd"/></g></g></g><g clip-path="url(#19a16122b1)"><g clip-path="url(#61b8a2afd4)"><g clip-path="url(#89fb975c18)"><path fill="#693e6c" d="M 177.828125 131.121094 C 176.121094 131.09375 174.628906 129.546875 174.660156 127.839844 L 175.929688 56.292969 C 175.960938 54.585938 177.503906 53.09375 179.210938 53.125 C 180.921875 53.15625 182.222656 54.695312 182.191406 56.40625 L 180.921875 127.949219 C 180.890625 129.660156 179.535156 131.152344 177.828125 131.121094 Z M 177.828125 131.121094 " fill-opacity="1" fill-rule="evenodd"/></g></g></g><g clip-path="url(#247febf30d)"><g clip-path="url(#c7e0e352fa)"><g clip-path="url(#b2e7d6662c)"><path fill="#693e6c" d="M 179.097656 59.578125 C 169.609375 59.410156 161.964844 51.488281 162.136719 42 C 162.300781 32.703125 170.21875 25.058594 179.707031 25.226562 C 189.195312 25.394531 196.648438 33.3125 196.484375 42.609375 C 196.316406 52.097656 188.585938 59.746094 179.097656 59.578125 Z M 179.097656 59.578125 " fill-opacity="1" fill-rule="evenodd"/></g></g></g><g clip-path="url(#68cd375a69)"><g clip-path="url(#cdfb68160e)"><g clip-path="url(#280800e786)"><path fill="#693e6c" d="M 211.417969 131.71875 C 209.710938 131.6875 208.21875 130.144531 208.25 128.4375 L 208.773438 98.832031 C 208.804688 97.121094 210.351562 95.632812 212.058594 95.660156 C 213.765625 95.691406 215.257812 97.238281 215.226562 98.945312 L 214.703125 128.550781 C 214.671875 130.257812 213.125 131.75 211.417969 131.71875 Z M 211.417969 131.71875 " fill-opacity="1" fill-rule="evenodd"/></g></g></g><g clip-path="url(#8c2e4e39b2)"><g clip-path="url(#a9f0c5ac9f)"><g clip-path="url(#314cac5dd6)"><path fill="#693e6c" d="M 211.945312 102.113281 C 202.453125 101.945312 195.003906 94.03125 195.171875 84.542969 C 195.335938 75.242188 203.066406 67.597656 212.554688 67.765625 C 222.042969 67.933594 229.496094 75.847656 229.332031 85.148438 C 229.160156 94.636719 221.433594 102.28125 211.945312 102.113281 Z M 211.945312 102.113281 " fill-opacity="1" fill-rule="evenodd"/></g></g></g><g clip-path="url(#941f2319b2)"><g clip-path="url(#9f6d75e9c3)"><g clip-path="url(#4e5cf99139)"><path fill="#693e6c" d="M 245.007812 132.316406 C 243.300781 132.285156 241.808594 130.742188 241.839844 129.03125 L 242.660156 82.726562 C 242.828125 73.429688 250.554688 65.972656 259.851562 66.136719 L 279.96875 66.496094 C 281.675781 66.523438 283.167969 68.070312 283.136719 69.777344 C 283.105469 71.484375 281.5625 72.976562 279.855469 72.945312 L 259.738281 72.589844 C 254.042969 72.488281 249.21875 76.957031 249.113281 82.839844 L 248.292969 129.148438 C 248.261719 130.855469 246.714844 132.347656 245.007812 132.316406 Z M 245.007812 132.316406 " fill-opacity="1" fill-rule="evenodd"/></g></g></g><g clip-path="url(#0f11451561)"><g clip-path="url(#218924fa61)"><g clip-path="url(#cd38a8ddcf)"><path fill="#693e6c" d="M 293.652344 87.050781 C 284.164062 86.882812 276.515625 79.152344 276.683594 69.664062 C 276.851562 60.175781 284.769531 52.722656 294.257812 52.890625 C 303.746094 53.058594 311.203125 60.785156 311.035156 70.273438 C 310.867188 79.761719 303.140625 87.21875 293.652344 87.050781 Z M 293.652344 87.050781 " fill-opacity="1" fill-rule="evenodd"/></g></g></g><g clip-path="url(#bad99c5038)"><g clip-path="url(#78662cc210)"><g clip-path="url(#b880d0c019)"><path fill="#693e6c" d="M 144.238281 130.527344 C 142.339844 130.492188 141.039062 128.949219 141.066406 127.242188 L 141.890625 80.9375 C 141.996094 75.054688 137.332031 70.414062 131.636719 70.3125 L 111.523438 69.957031 C 109.625 69.921875 108.324219 68.382812 108.351562 66.671875 C 108.382812 64.964844 109.738281 63.46875 111.636719 63.503906 L 131.753906 63.863281 C 141.050781 64.027344 148.316406 71.75 148.152344 81.046875 L 147.332031 127.355469 C 147.300781 129.0625 145.945312 130.554688 144.238281 130.527344 Z M 144.238281 130.527344 " fill-opacity="1" fill-rule="evenodd"/></g></g></g><g clip-path="url(#b0d329d0ca)"><g clip-path="url(#f43cca7c73)"><g clip-path="url(#ff06f9dbd4)"><path fill="#693e6c" d="M 97.230469 83.5625 C 87.742188 83.390625 80.289062 75.667969 80.457031 66.175781 C 80.625 56.6875 88.351562 49.230469 97.839844 49.402344 C 107.328125 49.570312 114.785156 57.296875 114.617188 66.785156 C 114.445312 76.273438 106.722656 83.730469 97.230469 83.5625 Z M 97.230469 83.5625 " fill-opacity="1" fill-rule="evenodd"/></g></g></g><g clip-path="url(#56a341dcf9)"><g clip-path="url(#0589700fce)"><g clip-path="url(#c4bb96fa6c)"><path fill="#693e6c" d="M 322.945312 158.570312 L 263.355469 157.511719 C 261.648438 157.480469 260.15625 155.933594 260.1875 154.226562 C 260.214844 152.519531 261.757812 151.21875 263.464844 151.246094 L 323.054688 152.304688 C 324.765625 152.335938 326.070312 153.6875 326.039062 155.398438 C 326.007812 157.105469 324.652344 158.597656 322.945312 158.570312 Z M 322.945312 158.570312 " fill-opacity="1" fill-rule="evenodd"/></g></g></g><g clip-path="url(#7567b9d6a1)"><g clip-path="url(#b8759ae24a)"><g clip-path="url(#9e992538cb)"><path fill="#693e6c" d="M 336.546875 172.859375 C 327.25 172.691406 319.605469 164.773438 319.777344 155.285156 C 319.945312 145.796875 327.859375 138.34375 337.160156 138.507812 C 346.648438 138.675781 354.292969 146.40625 354.125 155.894531 C 353.957031 165.382812 346.039062 173.027344 336.546875 172.859375 Z M 336.546875 172.859375 " fill-opacity="1" fill-rule="evenodd"/></g></g></g><g clip-path="url(#c3412847da)"><g clip-path="url(#0d73ebf85a)"><g clip-path="url(#998cf0edea)"><path fill="#693e6c" d="M 280.582031 192.175781 L 262.746094 191.859375 C 261.035156 191.828125 259.542969 190.472656 259.574219 188.578125 C 259.605469 186.867188 261.148438 185.566406 262.855469 185.597656 L 280.695312 185.914062 C 282.402344 185.945312 283.707031 187.296875 283.675781 189.003906 C 283.644531 190.902344 282.292969 192.207031 280.582031 192.175781 Z M 280.582031 192.175781 " fill-opacity="1" fill-rule="evenodd"/></g></g></g><g clip-path="url(#9c0096636a)"><g clip-path="url(#bd945d0811)"><g clip-path="url(#88f3a07d03)"><path fill="#693e6c" d="M 294.1875 206.464844 C 284.886719 206.300781 277.246094 198.382812 277.414062 188.894531 C 277.578125 179.59375 285.5 171.953125 294.796875 172.117188 C 304.285156 172.285156 311.929688 180.203125 311.765625 189.503906 C 311.59375 198.992188 303.675781 206.636719 294.1875 206.464844 Z M 294.1875 206.464844 " fill-opacity="1" fill-rule="evenodd"/></g></g></g><g clip-path="url(#b370117d90)"><g clip-path="url(#aee5d3db05)"><g clip-path="url(#47d295acdd)"><path fill="#693e6c" d="M 321.726562 227.078125 L 262.136719 226.019531 C 260.429688 225.988281 258.933594 224.632812 258.96875 222.738281 C 259 221.027344 260.539062 219.726562 262.25 219.757812 L 321.839844 220.816406 C 323.546875 220.847656 324.851562 222.199219 324.820312 223.90625 C 324.789062 225.804688 323.4375 227.109375 321.726562 227.078125 Z M 321.726562 227.078125 " fill-opacity="1" fill-rule="evenodd"/></g></g></g><g clip-path="url(#833400705a)"><g clip-path="url(#e46250c40a)"><g clip-path="url(#c892b0cb42)"><path fill="#693e6c" d="M 335.332031 241.367188 C 326.03125 241.203125 318.390625 233.285156 318.558594 223.792969 C 318.722656 214.496094 326.644531 206.851562 335.941406 207.019531 C 345.429688 207.1875 353.074219 215.105469 352.910156 224.40625 C 352.738281 233.894531 344.820312 241.535156 335.332031 241.367188 Z M 335.332031 241.367188 " fill-opacity="1" fill-rule="evenodd"/></g></g></g><g clip-path="url(#1beb6cb17c)"><g clip-path="url(#83ec8e0f5c)"><g clip-path="url(#a64b6137c4)"><path fill="#693e6c" d="M 174.453125 321.089844 C 172.746094 321.058594 171.25 319.703125 171.28125 317.996094 L 172.550781 246.449219 C 172.585938 244.550781 174.128906 243.25 175.835938 243.28125 C 177.542969 243.3125 178.847656 244.664062 178.8125 246.5625 L 177.542969 318.105469 C 177.511719 319.816406 176.160156 321.121094 174.453125 321.089844 Z M 174.453125 321.089844 " fill-opacity="1" fill-rule="evenodd"/></g></g></g><g clip-path="url(#ea58fdb135)"><g clip-path="url(#33c236ddaa)"><g clip-path="url(#22baf4ad5b)"><path fill="#693e6c" d="M 173.953125 349.175781 C 164.464844 349.007812 156.824219 341.089844 156.992188 331.601562 C 157.160156 322.109375 165.074219 314.65625 174.5625 314.828125 C 184.054688 314.996094 191.507812 322.722656 191.339844 332.210938 C 191.171875 341.699219 183.441406 349.34375 173.953125 349.175781 Z M 173.953125 349.175781 " fill-opacity="1" fill-rule="evenodd"/></g></g></g><g clip-path="url(#7a31a02f2b)"><g clip-path="url(#86a9da681c)"><g clip-path="url(#2b853f7bab)"><path fill="#693e6c" d="M 208.789062 279.746094 C 207.082031 279.714844 205.585938 278.359375 205.617188 276.652344 L 206.140625 247.046875 C 206.175781 245.148438 207.71875 243.847656 209.425781 243.878906 C 211.132812 243.90625 212.628906 245.261719 212.59375 247.160156 L 212.070312 276.765625 C 212.039062 278.472656 210.496094 279.777344 208.789062 279.746094 Z M 208.789062 279.746094 " fill-opacity="1" fill-rule="evenodd"/></g></g></g><g clip-path="url(#df292d24e6)"><g clip-path="url(#267c2be003)"><g clip-path="url(#9cd76be315)"><path fill="#693e6c" d="M 208.289062 307.832031 C 198.800781 307.664062 191.347656 299.746094 191.515625 290.257812 C 191.683594 280.769531 199.410156 273.3125 208.898438 273.484375 C 218.386719 273.652344 225.84375 281.378906 225.675781 290.867188 C 225.507812 300.355469 217.777344 308 208.289062 307.832031 Z M 208.289062 307.832031 " fill-opacity="1" fill-rule="evenodd"/></g></g></g><g clip-path="url(#3a878bc8b4)"><g clip-path="url(#f75fd65687)"><g clip-path="url(#657f21ca26)"><path fill="#693e6c" d="M 275.621094 311.304688 L 255.503906 310.949219 C 246.203125 310.785156 238.746094 303.246094 238.910156 293.949219 L 239.734375 247.644531 C 239.765625 245.746094 241.308594 244.445312 243.015625 244.472656 C 244.722656 244.503906 246.21875 245.859375 246.183594 247.757812 L 245.363281 294.0625 C 245.261719 299.757812 249.921875 304.585938 255.613281 304.6875 L 275.730469 305.042969 C 277.4375 305.074219 278.933594 306.429688 278.898438 308.328125 C 278.871094 310.035156 277.328125 311.335938 275.621094 311.304688 Z M 275.621094 311.304688 " fill-opacity="1" fill-rule="evenodd"/></g></g></g><g clip-path="url(#35b478cdfc)"><g clip-path="url(#26f58184c7)"><g clip-path="url(#649ede7282)"><path fill="#693e6c" d="M 289.414062 325.597656 C 279.925781 325.429688 272.28125 317.511719 272.449219 308.210938 C 272.617188 298.722656 280.535156 291.082031 290.023438 291.25 C 299.511719 291.417969 306.964844 299.332031 306.796875 308.824219 C 306.632812 318.121094 298.902344 325.769531 289.414062 325.597656 Z M 289.414062 325.597656 " fill-opacity="1" fill-rule="evenodd"/></g></g></g><g clip-path="url(#a0b785434b)"><g clip-path="url(#4c05b08aad)"><g clip-path="url(#e73bd438d1)"><path fill="#693e6c" d="M 127.402344 308.671875 L 107.289062 308.316406 C 105.390625 308.28125 104.085938 306.929688 104.117188 305.222656 C 104.148438 303.324219 105.5 302.019531 107.398438 302.054688 L 127.515625 302.410156 C 133.207031 302.511719 138.039062 297.851562 138.136719 292.160156 L 138.960938 245.851562 C 138.996094 243.957031 140.347656 242.648438 142.246094 242.683594 C 143.953125 242.714844 145.257812 244.066406 145.222656 245.964844 L 144.402344 292.269531 C 144.234375 301.570312 136.703125 308.839844 127.402344 308.671875 Z M 127.402344 308.671875 " fill-opacity="1" fill-rule="evenodd"/></g></g></g><g clip-path="url(#2f28edc4d5)"><g clip-path="url(#af0b7113b3)"><g clip-path="url(#d779678ba4)"><path fill="#693e6c" d="M 92.996094 322.109375 C 83.507812 321.941406 76.054688 314.027344 76.21875 304.726562 C 76.386719 295.238281 84.117188 287.59375 93.605469 287.761719 C 103.09375 287.929688 110.546875 295.84375 110.378906 305.332031 C 110.214844 314.632812 102.484375 322.277344 92.996094 322.109375 Z M 92.996094 322.109375 " fill-opacity="1" fill-rule="evenodd"/></g></g></g><g clip-path="url(#797e48f915)"><g clip-path="url(#907c60ba14)"><g clip-path="url(#d3faacc3c8)"><path fill="#693e6c" d="M 125.007812 155.054688 L 65.417969 153.996094 C 63.710938 153.964844 62.214844 152.609375 62.246094 150.902344 C 62.277344 149.003906 63.820312 147.703125 65.527344 147.730469 L 125.117188 148.789062 C 126.828125 148.820312 128.132812 150.171875 128.097656 152.070312 C 128.066406 153.777344 126.714844 155.082031 125.007812 155.054688 Z M 125.007812 155.054688 " fill-opacity="1" fill-rule="evenodd"/></g></g></g><g clip-path="url(#dc5b8a04bc)"><g clip-path="url(#4583e6c410)"><g clip-path="url(#0cedaac43f)"><path fill="#693e6c" d="M 51.125 167.789062 C 41.824219 167.625 34.179688 159.894531 34.347656 150.40625 C 34.515625 140.917969 42.4375 133.273438 51.734375 133.4375 C 61.222656 133.609375 68.867188 141.527344 68.699219 151.015625 C 68.527344 160.503906 60.613281 167.957031 51.125 167.789062 Z M 51.125 167.789062 " fill-opacity="1" fill-rule="evenodd"/></g></g></g><g clip-path="url(#bafaa85e4a)"><g clip-path="url(#374fe1232e)"><g clip-path="url(#7a0591db0c)"><path fill="#693e6c" d="M 124.398438 189.402344 L 106.558594 189.085938 C 104.851562 189.054688 103.355469 187.699219 103.386719 185.992188 C 103.417969 184.285156 104.960938 182.792969 106.667969 182.824219 L 124.507812 183.140625 C 126.214844 183.171875 127.519531 184.710938 127.488281 186.421875 C 127.457031 188.128906 126.105469 189.433594 124.398438 189.402344 Z M 124.398438 189.402344 " fill-opacity="1" fill-rule="evenodd"/></g></g></g><g clip-path="url(#cd0ffa2f88)"><g clip-path="url(#deb052cf3d)"><g clip-path="url(#d948e46bba)"><path fill="#693e6c" d="M 92.265625 202.878906 C 82.777344 202.710938 75.320312 194.984375 75.488281 185.496094 C 75.65625 176.007812 83.386719 168.363281 92.875 168.53125 C 102.363281 168.699219 110.007812 176.617188 109.839844 186.105469 C 109.667969 195.59375 101.753906 203.046875 92.265625 202.878906 Z M 92.265625 202.878906 " fill-opacity="1" fill-rule="evenodd"/></g></g></g><g clip-path="url(#ea0650fee1)"><g clip-path="url(#00e3f78082)"><g clip-path="url(#4b8e83b44a)"><path fill="#693e6c" d="M 123.785156 223.753906 L 64.195312 222.695312 C 62.488281 222.664062 60.996094 221.117188 61.027344 219.410156 C 61.058594 217.703125 62.605469 216.210938 64.3125 216.242188 L 123.902344 217.300781 C 125.609375 217.332031 126.910156 218.871094 126.878906 220.578125 C 126.851562 222.289062 125.496094 223.78125 123.785156 223.753906 Z M 123.785156 223.753906 " fill-opacity="1" fill-rule="evenodd"/></g></g></g><g clip-path="url(#e3da1442a2)"><g clip-path="url(#8b1a2b9654)"><g clip-path="url(#1bc4c8ca08)"><path fill="#693e6c" d="M 49.90625 236.296875 C 40.609375 236.132812 32.960938 228.402344 33.132812 218.914062 C 33.300781 209.425781 41.214844 201.972656 50.515625 202.136719 C 60.003906 202.308594 67.648438 210.035156 67.480469 219.523438 C 67.3125 229.011719 59.394531 236.464844 49.90625 236.296875 Z M 49.90625 236.296875 " fill-opacity="1" fill-rule="evenodd"/></g></g></g><g fill="#ed8f40" fill-opacity="0.302"><g transform="translate(48.633348, 254.104978)"><g><path d="M 44.078125 -7.75 C 43.472656 -6.4375 42.613281 -5.269531 41.5 -4.25 C 38.863281 -1.414062 35.671875 0 31.921875 0 L 19.765625 0 C 16.015625 0 12.796875 -1.414062 10.109375 -4.25 C 7.421875 -7.09375 6.078125 -10.488281 6.078125 -14.4375 L 6.078125 -105.640625 L 22.796875 -105.640625 L 22.796875 -15.953125 L 35.71875 -15.953125 L 35.71875 -105.640625 L 52.4375 -105.640625 L 52.4375 -15.953125 L 65.359375 -15.953125 L 65.359375 -105.640625 L 82.078125 -105.640625 L 82.078125 -14.4375 C 82.078125 -10.382812 80.734375 -6.960938 78.046875 -4.171875 C 75.367188 -1.390625 72.15625 0 68.40625 0 L 56.234375 0 C 52.484375 0 49.242188 -1.414062 46.515625 -4.25 C 45.492188 -5.363281 44.679688 -6.53125 44.078125 -7.75 Z M 44.078125 -7.75 "/></g></g></g><g fill="#ed8f40" fill-opacity="0.502"><g transform="translate(43.62592, 250.331614)"><g><path d="M 44.078125 -7.75 C 43.472656 -6.4375 42.613281 -5.269531 41.5 -4.25 C 38.863281 -1.414062 35.671875 0 31.921875 0 L 19.765625 0 C 16.015625 0 12.796875 -1.414062 10.109375 -4.25 C 7.421875 -7.09375 6.078125 -10.488281 6.078125 -14.4375 L 6.078125 -105.640625 L 22.796875 -105.640625 L 22.796875 -15.953125 L 35.71875 -15.953125 L 35.71875 -105.640625 L 52.4375 -105.640625 L 52.4375 -15.953125 L 65.359375 -15.953125 L 65.359375 -105.640625 L 82.078125 -105.640625 L 82.078125 -14.4375 C 82.078125 -10.382812 80.734375 -6.960938 78.046875 -4.171875 C 75.367188 -1.390625 72.15625 0 68.40625 0 L 56.234375 0 C 52.484375 0 49.242188 -1.414062 46.515625 -4.25 C 45.492188 -5.363281 44.679688 -6.53125 44.078125 -7.75 Z M 44.078125 -7.75 "/></g></g></g><g fill="#b32711" fill-opacity="1"><g transform="translate(38.618492, 246.55825)"><g><path d="M 44.078125 -7.75 C 43.472656 -6.4375 42.613281 -5.269531 41.5 -4.25 C 38.863281 -1.414062 35.671875 0 31.921875 0 L 19.765625 0 C 16.015625 0 12.796875 -1.414062 10.109375 -4.25 C 7.421875 -7.09375 6.078125 -10.488281 6.078125 -14.4375 L 6.078125 -105.640625 L 22.796875 -105.640625 L 22.796875 -15.953125 L 35.71875 -15.953125 L 35.71875 -105.640625 L 52.4375 -105.640625 L 52.4375 -15.953125 L 65.359375 -15.953125 L 65.359375 -105.640625 L 82.078125 -105.640625 L 82.078125 -14.4375 C 82.078125 -10.382812 80.734375 -6.960938 78.046875 -4.171875 C 75.367188 -1.390625 72.15625 0 68.40625 0 L 56.234375 0 C 52.484375 0 49.242188 -1.414062 46.515625 -4.25 C 45.492188 -5.363281 44.679688 -6.53125 44.078125 -7.75 Z M 44.078125 -7.75 "/></g></g></g><g fill="#ed8f40" fill-opacity="0.302"><g transform="translate(245.687142, 254.104978)"><g><path d="M 19 0 L 19 -89.6875 L 2.28125 -89.6875 L 2.28125 -105.640625 L 52.4375 -105.640625 L 52.4375 -89.6875 L 35.71875 -89.6875 L 35.71875 0 Z M 19 0 "/></g></g></g><g fill="#ed8f40" fill-opacity="0.302"><g transform="translate(300.404328, 254.104978)"><g><path d="M 6.078125 -91.203125 C 6.078125 -95.359375 7.421875 -98.800781 10.109375 -101.53125 C 12.796875 -104.269531 16.015625 -105.640625 19.765625 -105.640625 L 38.765625 -105.640625 C 42.515625 -105.640625 45.726562 -104.242188 48.40625 -101.453125 C 51.09375 -98.671875 52.4375 -95.253906 52.4375 -91.203125 L 52.4375 -86.640625 L 35.71875 -78.28125 L 35.71875 -89.6875 L 22.796875 -89.6875 L 22.796875 -61.5625 L 52.4375 -76.765625 L 52.4375 -14.4375 C 52.4375 -10.488281 51.09375 -7.09375 48.40625 -4.25 C 45.726562 -1.414062 42.515625 0 38.765625 0 L 19.765625 0 C 16.015625 0 12.796875 -1.390625 10.109375 -4.171875 C 7.421875 -6.960938 6.078125 -10.382812 6.078125 -14.4375 L 6.078125 -24.3125 L 22.796875 -32.6875 L 22.796875 -15.953125 L 35.71875 -15.953125 L 35.71875 -49.40625 L 6.078125 -34.203125 Z M 6.078125 -91.203125 "/></g></g></g><g fill="#ed8f40" fill-opacity="0.502"><g transform="translate(240.679706, 250.331614)"><g><path d="M 19 0 L 19 -89.6875 L 2.28125 -89.6875 L 2.28125 -105.640625 L 52.4375 -105.640625 L 52.4375 -89.6875 L 35.71875 -89.6875 L 35.71875 0 Z M 19 0 "/></g></g></g><g fill="#ed8f40" fill-opacity="0.502"><g transform="translate(295.396892, 250.331614)"><g><path d="M 6.078125 -91.203125 C 6.078125 -95.359375 7.421875 -98.800781 10.109375 -101.53125 C 12.796875 -104.269531 16.015625 -105.640625 19.765625 -105.640625 L 38.765625 -105.640625 C 42.515625 -105.640625 45.726562 -104.242188 48.40625 -101.453125 C 51.09375 -98.671875 52.4375 -95.253906 52.4375 -91.203125 L 52.4375 -86.640625 L 35.71875 -78.28125 L 35.71875 -89.6875 L 22.796875 -89.6875 L 22.796875 -61.5625 L 52.4375 -76.765625 L 52.4375 -14.4375 C 52.4375 -10.488281 51.09375 -7.09375 48.40625 -4.25 C 45.726562 -1.414062 42.515625 0 38.765625 0 L 19.765625 0 C 16.015625 0 12.796875 -1.390625 10.109375 -4.171875 C 7.421875 -6.960938 6.078125 -10.382812 6.078125 -14.4375 L 6.078125 -24.3125 L 22.796875 -32.6875 L 22.796875 -15.953125 L 35.71875 -15.953125 L 35.71875 -49.40625 L 6.078125 -34.203125 Z M 6.078125 -91.203125 "/></g></g></g><g fill="#b32711" fill-opacity="1"><g transform="translate(235.672284, 246.55825)"><g><path d="M 19 0 L 19 -89.6875 L 2.28125 -89.6875 L 2.28125 -105.640625 L 52.4375 -105.640625 L 52.4375 -89.6875 L 35.71875 -89.6875 L 35.71875 0 Z M 19 0 "/></g></g></g><g fill="#b32711" fill-opacity="1"><g transform="translate(290.38947, 246.55825)"><g><path d="M 6.078125 -91.203125 C 6.078125 -95.359375 7.421875 -98.800781 10.109375 -101.53125 C 12.796875 -104.269531 16.015625 -105.640625 19.765625 -105.640625 L 38.765625 -105.640625 C 42.515625 -105.640625 45.726562 -104.242188 48.40625 -101.453125 C 51.09375 -98.671875 52.4375 -95.253906 52.4375 -91.203125 L 52.4375 -86.640625 L 35.71875 -78.28125 L 35.71875 -89.6875 L 22.796875 -89.6875 L 22.796875 -61.5625 L 52.4375 -76.765625 L 52.4375 -14.4375 C 52.4375 -10.488281 51.09375 -7.09375 48.40625 -4.25 C 45.726562 -1.414062 42.515625 0 38.765625 0 L 19.765625 0 C 16.015625 0 12.796875 -1.390625 10.109375 -4.171875 C 7.421875 -6.960938 6.078125 -10.382812 6.078125 -14.4375 L 6.078125 -24.3125 L 22.796875 -32.6875 L 22.796875 -15.953125 L 35.71875 -15.953125 L 35.71875 -49.40625 L 6.078125 -34.203125 Z M 6.078125 -91.203125 "/></g></g></g><g fill="#ffffff" fill-opacity="1"><g transform="translate(149.252998, 233.126029)"><g><path d="M 0.824219 -11.5 L 0.824219 0 L 7.859375 0 L 7.859375 -2.0625 L 3.214844 -2.0625 L 3.214844 -4.835938 L 7.121094 -4.835938 L 7.121094 -6.902344 L 3.214844 -6.902344 L 3.214844 -9.4375 L 7.859375 -9.4375 L 7.859375 -11.5 Z M 0.824219 -11.5 "/></g></g></g><g fill="#ffffff" fill-opacity="1"><g transform="translate(158.894988, 233.126029)"><g><path d="M 4.277344 -4.808594 C 5.941406 -4.585938 6.371094 -4.128906 6.371094 -3.304688 L 6.371094 -3.230469 C 6.371094 -2.460938 5.824219 -1.871094 4.71875 -1.871094 L 4.585938 -1.871094 C 3.480469 -1.871094 2.890625 -2.476562 2.890625 -3.921875 L 0.5 -3.921875 L 0.5 -3.789062 C 0.5 -1.015625 1.929688 0.191406 4.644531 0.191406 C 7.34375 0.191406 8.804688 -1.089844 8.804688 -3.304688 L 8.804688 -3.449219 C 8.804688 -5.589844 7.535156 -6.445312 5.027344 -6.78125 C 3.347656 -7.003906 3.007812 -7.445312 3.007812 -8.285156 L 3.007812 -8.359375 C 3.007812 -9.097656 3.566406 -9.628906 4.527344 -9.628906 L 4.660156 -9.628906 C 5.867188 -9.628906 6.324219 -8.933594 6.324219 -7.429688 L 8.714844 -7.429688 L 8.714844 -7.742188 C 8.714844 -10.441406 7.476562 -11.691406 4.644531 -11.691406 C 2.019531 -11.691406 0.589844 -10.351562 0.589844 -8.273438 L 0.589844 -8.109375 C 0.589844 -6.03125 1.769531 -5.144531 4.277344 -4.808594 Z M 4.277344 -4.808594 "/></g></g></g><g fill="#ffffff" fill-opacity="1"><g transform="translate(169.392023, 233.126029)"><g><path d="M 5.292969 -9.4375 L 7.960938 -9.4375 L 7.960938 -11.5 L 0.25 -11.5 L 0.25 -9.4375 L 2.90625 -9.4375 L 2.90625 0 L 5.292969 0 Z M 5.292969 -9.4375 "/></g></g></g><g fill="#ffffff" fill-opacity="1"><g transform="translate(178.798139, 233.126029)"><g><path d="M 9.199219 -5.457031 L 9.199219 -6.046875 C 9.199219 -10.027344 7.769531 -11.5 4.351562 -11.5 L 0.824219 -11.5 L 0.824219 0 L 4.351562 0 C 7.769531 0 9.199219 -1.472656 9.199219 -5.457031 Z M 3.214844 -2.0625 L 3.214844 -9.4375 L 4.21875 -9.4375 C 6.207031 -9.4375 6.769531 -8.34375 6.769531 -6.046875 L 6.769531 -5.457031 C 6.769531 -3.15625 6.207031 -2.0625 4.21875 -2.0625 Z M 3.214844 -2.0625 "/></g></g></g><g fill="#ffffff" fill-opacity="1"><g transform="translate(189.766922, 233.126029)"><g><path d="M 3.183594 -2.460938 L 0.738281 -2.460938 L 0.738281 0 L 3.183594 0 Z M 3.183594 -2.460938 "/></g></g></g><g fill="#ffffff" fill-opacity="1"><g transform="translate(194.883083, 233.126029)"><g/></g></g><g fill="#ffffff" fill-opacity="1"><g transform="translate(199.026268, 233.126029)"><g><path d="M 5.027344 -2.0625 L 3.980469 -2.050781 L 6.914062 -5.265625 C 7.769531 -6.207031 8.199219 -6.886719 8.199219 -8.242188 L 8.199219 -8.507812 C 8.199219 -10.011719 7.226562 -11.691406 4.421875 -11.691406 C 1.859375 -11.691406 0.648438 -10.441406 0.648438 -7.960938 L 0.648438 -7.667969 L 3.007812 -7.667969 C 3.007812 -9.128906 3.539062 -9.628906 4.351562 -9.628906 L 4.496094 -9.628906 C 5.277344 -9.628906 5.839844 -9.113281 5.839844 -8.066406 L 5.839844 -7.917969 C 5.839844 -7.285156 5.589844 -6.914062 5.074219 -6.371094 L 0.648438 -1.488281 L 0.648438 0 L 8.199219 0 L 8.199219 -2.0625 Z M 5.027344 -2.0625 "/></g></g></g><g fill="#ffffff" fill-opacity="1"><g transform="translate(209.066306, 233.126029)"><g><path d="M 8.183594 -3.257812 L 8.183594 -8.242188 C 8.183594 -10.234375 6.929688 -11.691406 4.421875 -11.691406 C 1.917969 -11.691406 0.664062 -10.234375 0.664062 -8.242188 L 0.664062 -3.257812 C 0.664062 -1.269531 1.917969 0.191406 4.421875 0.191406 C 6.929688 0.191406 8.183594 -1.269531 8.183594 -3.257812 Z M 5.824219 -8.214844 L 5.824219 -3.289062 C 5.824219 -2.449219 5.398438 -1.871094 4.453125 -1.871094 L 4.394531 -1.871094 C 3.449219 -1.871094 3.023438 -2.449219 3.023438 -3.289062 L 3.023438 -8.214844 C 3.023438 -9.054688 3.449219 -9.628906 4.394531 -9.628906 L 4.453125 -9.628906 C 5.398438 -9.628906 5.824219 -9.054688 5.824219 -8.214844 Z M 5.824219 -8.214844 "/></g></g></g><g fill="#ffffff" fill-opacity="1"><g transform="translate(219.106345, 233.126029)"><g><path d="M 5.027344 -2.0625 L 3.980469 -2.050781 L 6.914062 -5.265625 C 7.769531 -6.207031 8.199219 -6.886719 8.199219 -8.242188 L 8.199219 -8.507812 C 8.199219 -10.011719 7.226562 -11.691406 4.421875 -11.691406 C 1.859375 -11.691406 0.648438 -10.441406 0.648438 -7.960938 L 0.648438 -7.667969 L 3.007812 -7.667969 C 3.007812 -9.128906 3.539062 -9.628906 4.351562 -9.628906 L 4.496094 -9.628906 C 5.277344 -9.628906 5.839844 -9.113281 5.839844 -8.066406 L 5.839844 -7.917969 C 5.839844 -7.285156 5.589844 -6.914062 5.074219 -6.371094 L 0.648438 -1.488281 L 0.648438 0 L 8.199219 0 L 8.199219 -2.0625 Z M 5.027344 -2.0625 "/></g></g></g><g fill="#ffffff" fill-opacity="1"><g transform="translate(229.146383, 233.126029)"><g><path d="M 2.933594 -3.6875 L 0.574219 -3.6875 L 0.574219 -3.496094 C 0.574219 -1.136719 1.84375 0.191406 4.421875 0.191406 C 7.179688 0.191406 8.273438 -1.621094 8.273438 -3.082031 L 8.273438 -3.363281 C 8.273438 -4.628906 7.652344 -5.425781 6.855469 -5.882812 C 7.609375 -6.324219 8.199219 -7.121094 8.199219 -8.34375 L 8.199219 -8.625 C 8.199219 -10.011719 7.226562 -11.691406 4.421875 -11.691406 C 1.859375 -11.691406 0.648438 -10.441406 0.648438 -7.960938 L 0.648438 -7.667969 L 3.007812 -7.667969 C 3.007812 -9.128906 3.523438 -9.628906 4.351562 -9.628906 L 4.496094 -9.628906 C 5.277344 -9.628906 5.839844 -9.113281 5.839844 -8.34375 L 5.839844 -8.214844 C 5.839844 -7.328125 5.335938 -6.902344 4.484375 -6.902344 L 2.949219 -6.902344 L 2.949219 -4.835938 L 4.527344 -4.835938 C 5.382812 -4.835938 5.914062 -4.394531 5.914062 -3.496094 L 5.914062 -3.332031 C 5.914062 -2.316406 5.234375 -1.871094 4.496094 -1.871094 L 4.351562 -1.871094 C 3.554688 -1.871094 2.933594 -2.316406 2.933594 -3.6875 Z M 2.933594 -3.6875 "/></g></g></g></svg>